# xmcd
#
# Track frame offsets:
#	150
#	18365
#	46738
#	78335
#	103030
#
# Disc length: 1590 seconds
#
# Revision: 1
# Processed by: cddbd v1.5PL3 Copyright (c) Steve Scherf et al.
# Submitted via: audiograbber 1.83.01
#
DISCID=2e063405
DTITLE=Earthling - Echo On My Mind Part II
DYEAR=1995
DGENRE=Other
TTITLE0=Echo On My Mind Part II (Radio Edit)
TTITLE1=Echo On My Mind Part II (Main Mix)
TTITLE2=Echo On My Mind (Original Mix)
TTITLE3=Echo On My Mind (Starmix)
TTITLE4=Echo On My Mind Part II (Cuts Mix)
EXTD=
EXTT0=
EXTT1=
EXTT2=
EXTT3=
EXTT4=
PLAYORDER=
